<svg width="529" height="237" viewBox="0 0 529 237" fill="none" xmlns="http://www.w3.org/2000/svg">
<path d="M374.629 98.6678V68.9166H440.819V122.121H405.765V98.6678H374.629ZM447.351 98.6678V68.9166H520.944V122.121H485.672V98.6678H447.351ZM466.076 169.028H520.508V237H376.371V169.028H430.586V157.736H367.662V127.55H529V157.736H466.076V169.028ZM411.426 197.477V208.552H485.236V197.477H411.426Z" fill="#FFDF86"/>
<path d="M306.763 232.903V143.953H325.575V232.903H306.763ZM272.043 144.185C277.307 144.185 281.99 145.382 286.093 147.775C290.274 150.169 293.525 153.566 295.848 157.967C298.17 162.369 299.331 167.465 299.331 173.256C299.331 179.047 298.17 184.181 295.848 188.66C293.525 193.061 290.274 196.458 286.093 198.852C281.99 201.245 277.307 202.442 272.043 202.442C266.701 202.442 261.94 201.245 257.759 198.852C253.656 196.458 250.444 193.061 248.121 188.66C245.799 184.181 244.638 179.047 244.638 173.256C244.638 167.465 245.799 162.369 248.121 157.967C250.444 153.566 253.656 150.169 257.759 147.775C261.94 145.382 266.701 144.185 272.043 144.185ZM272.043 161.79C269.178 161.79 266.933 162.871 265.307 165.033C263.682 167.194 262.869 169.936 262.869 173.256C262.869 176.653 263.682 179.433 265.307 181.595C266.933 183.679 269.178 184.722 272.043 184.722C274.829 184.722 277.074 183.679 278.778 181.595C280.481 179.433 281.332 176.653 281.332 173.256C281.332 169.936 280.481 167.194 278.778 165.033C277.074 162.871 274.829 161.79 272.043 161.79ZM302.583 225.49C300.028 226.726 296.854 227.652 293.061 228.27C289.345 228.811 285.551 229.081 281.681 229.081H242.547V210.55H282.377C286.016 210.55 289.654 210.279 293.293 209.739C297.009 209.198 300.105 208.388 302.583 207.307V225.49Z" fill="white"/>
<path d="M235.635 230.509H120.906V205.801H165.652V189.586H126.634V117.932H229.906V189.586H191.044V205.801H235.635V230.509ZM204.824 165.032V142.641H151.872V165.032H204.824Z" fill="white"/>
<path d="M111.942 234.216H88.4079V115.616H111.942V234.216ZM82.9889 116.079V232.208H59.6095V178.622H39.0172V153.759H59.6095V116.079H82.9889ZM29.4177 205.801C33.9594 205.801 38.6559 205.492 43.5072 204.875C48.3586 204.154 52.4358 203.176 55.7388 201.94V224.95C52.539 226.288 48.2037 227.318 42.7331 228.039C37.3656 228.759 32.153 229.119 27.0952 229.119H0V117.624H24.3083V205.801H29.4177Z" fill="white"/>
<path d="M181.393 78.0571C180.263 82.9636 175.366 86.0316 170.456 84.9096C165.546 83.7876 162.483 78.9006 163.613 73.9941C164.743 69.0876 169.64 66.0197 174.55 67.1416C179.46 68.2636 182.524 73.1507 181.393 78.0571Z" fill="#FFDF86"/>
<path d="M154.654 49.0685C154.008 51.8722 151.21 53.6253 148.404 52.9842C145.598 52.3431 143.848 49.5505 144.494 46.7468C145.139 43.9431 147.938 42.19 150.743 42.8311C153.549 43.4722 155.3 46.2648 154.654 49.0685Z" fill="#FFDF86"/>
<path d="M241.364 92.2054C240.386 96.4509 236.146 99.1047 231.893 98.1329C227.64 97.1611 224.985 92.9316 225.963 88.6861C226.941 84.4406 231.182 81.7867 235.435 82.7586C239.688 83.7304 242.342 87.9599 241.364 92.2054Z" fill="#FFDF86"/>
<path fill-rule="evenodd" clip-rule="evenodd" d="M232.137 97.0741C235.804 97.9121 239.46 95.6238 240.304 91.963C241.147 88.3023 238.858 84.6553 235.191 83.8173C231.524 82.9794 227.867 85.2677 227.024 88.9284C226.181 92.5892 228.47 96.2361 232.137 97.0741ZM231.893 98.1329C236.146 99.1047 240.386 96.4509 241.364 92.2054C242.342 87.9599 239.688 83.7304 235.435 82.7586C231.182 81.7867 226.941 84.4406 225.963 88.6861C224.985 92.9316 227.64 97.1611 231.893 98.1329Z" fill="#FFDF86"/>
<path d="M373.159 59.8149C371.529 66.8908 364.461 71.3138 357.373 69.6941C350.285 68.0744 345.861 61.0252 347.491 53.9494C349.121 46.8735 356.188 42.4505 363.277 44.0702C370.365 45.6899 374.789 52.7391 373.159 59.8149Z" fill="#FFDF86"/>
<path fill-rule="evenodd" clip-rule="evenodd" d="M357.617 68.6353C364.119 70.1212 370.603 66.0637 372.098 59.5726C373.594 53.0815 369.535 46.6149 363.033 45.129C356.53 43.6431 350.047 47.7007 348.551 54.1917C347.056 60.6828 351.115 67.1494 357.617 68.6353ZM357.373 69.6941C364.461 71.3138 371.529 66.8908 373.159 59.8149C374.789 52.7391 370.365 45.6899 363.277 44.0702C356.188 42.4505 349.121 46.8735 347.491 53.9494C345.861 61.0252 350.285 68.0744 357.373 69.6941Z" fill="#FFDF86"/>
<path fill-rule="evenodd" clip-rule="evenodd" d="M235.231 91.2488L169.344 75.5992L169.865 73.4267L235.752 89.0764L235.231 91.2488Z" fill="#FFDF86"/>
<path fill-rule="evenodd" clip-rule="evenodd" d="M171.638 79.4272L148.538 48.2032L150.337 46.879L173.437 78.1031L171.638 79.4272Z" fill="#FFDF86"/>
<path fill-rule="evenodd" clip-rule="evenodd" d="M360.25 56.9511L233.353 91.545L232.781 89.4561L359.678 54.8621L360.25 56.9511Z" fill="#FFDF86"/>
</svg>
